<svg height="136.8pt" version="1.1" viewBox="0 0 92.16 136.8" width="92.16pt" xmlns="http://www.w3.org/2000/svg" xmlns:xlink="http://www.w3.org/1999/xlink">
 <metadata>
  <rdf:RDF xmlns:cc="http://creativecommons.org/ns#" xmlns:dc="http://purl.org/dc/elements/1.1/" xmlns:rdf="http://www.w3.org/1999/02/22-rdf-syntax-ns#">
   <cc:Work>
    <dc:type rdf:resource="http://purl.org/dc/dcmitype/StillImage"/>
    <dc:date>2020-11-06T13:22:00.978825</dc:date>
    <dc:format>image/svg+xml</dc:format>
    <dc:creator>
     <cc:Agent>
      <dc:title>Matplotlib v3.3.2, https://matplotlib.org/</dc:title>
     </cc:Agent>
    </dc:creator>
   </cc:Work>
  </rdf:RDF>
 </metadata>
 <defs>
  <style type="text/css">*{stroke-linecap:butt;stroke-linejoin:round;}</style>
 </defs>
 <g id="figure_1">
  <g id="patch_1">
   <path d="M 0 136.8 
L 92.16 136.8 
L 92.16 0 
L 0 0 
z
" style="fill:none;"/>
<g class="ports"></g>
  </g>
  <g id="axes_1">
   <g id="patch_2">
    <path clip-path="url(#p86ecccc3e0)" d="M 46.08 99 
C 54.67258 99 62.914388 95.775791 68.99026 90.037468 
C 75.066132 84.299144 78.48 76.515215 78.48 68.4 
C 78.48 60.284785 75.066132 52.500856 68.99026 46.762532 
C 62.914388 41.024209 54.67258 37.8 46.08 37.8 
C 37.48742 37.8 29.245612 41.024209 23.16974 46.762532 
C 17.093868 52.500856 13.68 60.284785 13.68 68.4 
C 13.68 76.515215 17.093868 84.299144 23.16974 90.037468 
C 29.245612 95.775791 37.48742 99 46.08 99 
z
" style="fill:none;stroke:#000000;stroke-linejoin:miter;stroke-width:2;"/>
   </g>
   <g id="patch_3">
    <path clip-path="url(#p86ecccc3e0)" d="M 46.08 53.1 
L 52.56 65.34 
L 46.1124 65.34 
L 46.1124 83.7 
L 46.0476 83.7 
L 46.0476 65.34 
L 39.6 65.34 
z
" style="stroke:#000000;stroke-linejoin:miter;stroke-width:2;"/>
   </g>
   <g id="line2d_1">
    <path clip-path="url(#p86ecccc3e0)" d="M 46.08 123.48 
L 46.08 99 
L 46.08 99 
M 46.08 37.8 
L 46.08 37.8 
L 46.08 13.32 
" style="fill:none;stroke:#000000;stroke-linecap:round;stroke-width:2;"/>
   </g>
  </g>
 </g>
 <defs>
  <clipPath id="p86ecccc3e0">
   <rect height="122.4" width="77.76" x="7.2" y="7.2"/>
  </clipPath>
 </defs>
</svg>