<svg height="75.6pt" version="1.1" viewBox="0 0 53.28 75.6" width="53.28pt" xmlns="http://www.w3.org/2000/svg" xmlns:xlink="http://www.w3.org/1999/xlink">
 <metadata>
  <rdf:RDF xmlns:cc="http://creativecommons.org/ns#" xmlns:dc="http://purl.org/dc/elements/1.1/" xmlns:rdf="http://www.w3.org/1999/02/22-rdf-syntax-ns#">
   <cc:Work>
    <dc:type rdf:resource="http://purl.org/dc/dcmitype/StillImage"/>
    <dc:date>2020-11-12T14:59:11.730098</dc:date>
    <dc:format>image/svg+xml</dc:format>
    <dc:creator>
     <cc:Agent>
      <dc:title>Matplotlib v3.3.2, https://matplotlib.org/</dc:title>
     </cc:Agent>
    </dc:creator>
   </cc:Work>
  </rdf:RDF>
 </metadata>
 <defs>
  <style type="text/css">*{stroke-linecap:butt;stroke-linejoin:round;}</style>
 </defs>
 <g id="figure_1">
  <g id="patch_1">
   <path d="M 0 75.6 
L 53.28 75.6 
L 53.28 0 
L 0 0 
z
" style="fill:none;"/>
<g class="ports">
<g class="port-1"></g>
<g class="port-2"></g>
</g>  </g>
  <g id="axes_1">
   <g id="patch_2">
    <path clip-path="url(#pedcfd885e5)" d="M 26.64 53.1 
C 30.93629 53.1 35.057194 51.487895 38.09513 48.618734 
C 41.133066 45.749572 42.84 41.857607 42.84 37.8 
C 42.84 33.742393 41.133066 29.850428 38.09513 26.981266 
C 35.057194 24.112105 30.93629 22.5 26.64 22.5 
C 22.34371 22.5 18.222806 24.112105 15.18487 26.981266 
C 12.146934 29.850428 10.44 33.742393 10.44 37.8 
C 10.44 41.857607 12.146934 45.749572 15.18487 48.618734 
C 18.222806 51.487895 22.34371 53.1 26.64 53.1 
z
" style="fill:none;stroke:#000000;stroke-linejoin:miter;stroke-width:2;"/>
   </g>
   <g id="patch_3">
    <path clip-path="url(#pedcfd885e5)" d="M 26.64 30.15 
L 29.88 36.27 
L 26.6562 36.27 
L 26.6562 45.45 
L 26.6238 45.45 
L 26.6238 36.27 
L 23.4 36.27 
z
" style="stroke:#000000;stroke-linejoin:miter;stroke-width:2;"/>
   </g>
   <g id="line2d_1">
    <path clip-path="url(#pedcfd885e5)" d="M 26.64 65.34 
L 26.64 53.1 
L 26.64 53.1 
M 26.64 22.5 
L 26.64 22.5 
L 26.64 10.26 
" style="fill:none;stroke:#000000;stroke-linecap:round;stroke-width:2;"/>
   </g>
  </g>
 </g>
 <defs>
  <clipPath id="pedcfd885e5">
   <rect height="61.2" width="38.88" x="7.2" y="7.2"/>
  </clipPath>
 </defs>
</svg>