<?xml version="1.0" encoding="utf-8"?>
<svg version="1.1" id="Layer_1" xmlns="http://www.w3.org/2000/svg" xmlns:xlink="http://www.w3.org/1999/xlink" x="0px"
     y="0px" viewBox="0 0 122.88 121.2" style="enable-background:new 0 0 122.88 121.2" xml:space="preserve"><g><path d="M11.27,0h100.34c3.1,0,5.92,1.27,7.96,3.31c2.04,2.04,3.31,4.86,3.31,7.96v98.66c0,3.14-1.6,5.94-3.94,7.96 c-2.37,2.04-5.58,3.31-8.64,3.31H11.27c-3.1,0-5.92-1.27-7.96-3.31C1.27,115.85,0,113.03,0,109.93V11.27 c0-3.09,1.27-5.91,3.31-7.95l0.01-0.01C5.36,1.27,8.18,0,11.27,0L11.27,0z M61.22,52.51c2.84,0,5.41,1.15,7.26,3.01 c1.86,1.86,3.01,4.43,3.01,7.26c0,2.84-1.15,5.41-3.01,7.26c-1.19,1.19-2.67,2.09-4.32,2.58v42.19h16.23V78.13 c0-0.88,0.38-1.66,0.99-2.2l9.47-9.72c-0.73-1.41-1.15-3.02-1.15-4.73c0-2.84,1.15-5.41,3.01-7.26c1.86-1.86,4.43-3.01,7.26-3.01 c2.84,0,5.41,1.15,7.27,3.01c1.86,1.86,3.01,4.43,3.01,7.26c0,2.84-1.15,5.41-3.01,7.27c-1.86,1.86-4.43,3.01-7.27,3.01 c-1.83,0-3.56-0.48-5.05-1.32l-8.65,8.88v35.51h24.02c1.55,0,3.21-0.68,4.48-1.77c1.03-0.88,1.72-1.99,1.72-3.12V11.27 c0-1.34-0.55-2.56-1.44-3.45c-0.89-0.89-2.11-1.44-3.45-1.44H84.7v9.96c1.65,0.49,3.13,1.39,4.32,2.58 c1.86,1.86,3.01,4.43,3.01,7.27c0,2.84-1.15,5.41-3.01,7.26c-1.86,1.86-4.43,3.01-7.26,3.01c-2.84,0-5.41-1.15-7.26-3.01 c-1.86-1.86-3.01-4.43-3.01-7.26c0-2.84,1.15-5.41,3.01-7.27l0.16-0.15c1.16-1.11,2.58-1.96,4.16-2.43V6.38H57.91v22.98 c0,1.63-1.32,2.94-2.94,2.94H47.4c-0.47,1.77-1.41,3.36-2.66,4.62c-1.86,1.86-4.43,3.01-7.26,3.01c-2.84,0-5.41-1.15-7.26-3.01 c-1.86-1.86-3.01-4.43-3.01-7.26c0-2.84,1.15-5.41,3.01-7.26c1.86-1.86,4.43-3.01,7.26-3.01c2.84,0,5.41,1.15,7.26,3.01 c1.12,1.12,1.98,2.49,2.49,4.03h4.8V6.38H11.27c-1.35,0-2.57,0.55-3.46,1.43C6.93,8.7,6.38,9.92,6.38,11.27v98.66 c0,1.34,0.55,2.56,1.44,3.45c0.89,0.89,2.11,1.44,3.45,1.44h24.99V91.61l-4.56-4.22c-1.43,0.75-3.05,1.18-4.78,1.18 c-2.84,0-5.41-1.15-7.26-3.01c-1.86-1.86-3.01-4.43-3.01-7.26c0-2.84,1.15-5.41,3.01-7.26c1.86-1.86,4.43-3.01,7.26-3.01 c2.84,0,5.41,1.15,7.26,3.01c1.86,1.86,3.01,4.43,3.01,7.26c0,1.82-0.47,3.52-1.3,5l5.08,4.7c0.71,0.54,1.17,1.39,1.17,2.35v24.48 h16.13V72.63c-1.65-0.49-3.13-1.39-4.32-2.58c-1.86-1.86-3.01-4.43-3.01-7.26c0-2.84,1.15-5.41,3.01-7.26 C55.82,53.66,58.39,52.51,61.22,52.51L61.22,52.51z M41.18,25.95c-0.95-0.95-2.26-1.54-3.71-1.54c-1.45,0-2.76,0.59-3.71,1.54 c-0.95,0.95-1.54,2.26-1.54,3.71c0,1.45,0.59,2.76,1.54,3.71s2.26,1.54,3.71,1.54c1.45,0,2.76-0.59,3.71-1.54 c0.95-0.95,1.54-2.26,1.54-3.71C42.72,28.21,42.13,26.9,41.18,25.95L41.18,25.95z M85.47,22.47c-0.95-0.95-2.26-1.54-3.71-1.54 c-1.4,0-2.67,0.54-3.61,1.43l-0.1,0.11c-0.95,0.95-1.54,2.26-1.54,3.71c0,1.45,0.59,2.76,1.54,3.71c0.95,0.95,2.26,1.54,3.71,1.54 c1.45,0,2.76-0.59,3.71-1.54c0.95-0.95,1.54-2.26,1.54-3.71C87,24.73,86.42,23.42,85.47,22.47L85.47,22.47z M26.92,73.04 c-1.45,0-2.76,0.59-3.71,1.54c-0.95,0.95-1.54,2.26-1.54,3.71c0,1.45,0.59,2.76,1.54,3.71c0.95,0.95,2.26,1.54,3.71,1.54 c1.45,0,2.76-0.59,3.71-1.54c0.95-0.95,1.54-2.26,1.54-3.71c0-1.45-0.59-2.76-1.54-3.71C29.68,73.63,28.37,73.04,26.92,73.04 L26.92,73.04z M103.69,57.77c-0.95-0.95-2.26-1.54-3.71-1.54c-1.45,0-2.76,0.59-3.71,1.54c-0.95,0.95-1.54,2.26-1.54,3.71 c0,1.45,0.59,2.76,1.54,3.71c0.95,0.95,2.26,1.54,3.71,1.54c1.45,0,2.76-0.59,3.71-1.54c0.95-0.95,1.54-2.26,1.54-3.71 C105.22,60.03,104.64,58.72,103.69,57.77L103.69,57.77z M64.93,59.08c-0.95-0.95-2.26-1.54-3.71-1.54c-1.45,0-2.76,0.59-3.71,1.54 c-0.95,0.95-1.54,2.26-1.54,3.71c0,1.45,0.59,2.76,1.54,3.71c0.95,0.95,2.26,1.54,3.71,1.54c1.45,0,2.76-0.59,3.71-1.54 c0.95-0.95,1.54-2.26,1.54-3.71C66.47,61.34,65.88,60.03,64.93,59.08L64.93,59.08z"/></g></svg>
