<svg height="35.82pt" version="1.1" viewBox="0 0 37.08 35.82" width="37.08pt" xmlns="http://www.w3.org/2000/svg" xmlns:xlink="http://www.w3.org/1999/xlink">
 <metadata>
  <rdf:RDF xmlns:cc="http://creativecommons.org/ns#" xmlns:dc="http://purl.org/dc/elements/1.1/" xmlns:rdf="http://www.w3.org/1999/02/22-rdf-syntax-ns#">
   <cc:Work>
    <dc:type rdf:resource="http://purl.org/dc/dcmitype/StillImage"/>
    <dc:date>2020-11-06T13:22:00.799668</dc:date>
    <dc:format>image/svg+xml</dc:format>
    <dc:creator>
     <cc:Agent>
      <dc:title>Matplotlib v3.3.2, https://matplotlib.org/</dc:title>
     </cc:Agent>
    </dc:creator>
   </cc:Work>
  </rdf:RDF>
 </metadata>
 <defs>
  <style type="text/css">*{stroke-linecap:butt;stroke-linejoin:round;}</style>
 </defs>
 <g id="figure_1">
  <g id="patch_1">
   <path d="M 0 35.82 
L 37.08 35.82 
L 37.08 0 
L 0 0 
z
" style="fill:none;"/>
<g class="ports"></g>
  </g>
  <g id="axes_1">
   <g id="patch_2">
    <path clip-path="url(#pe9a36da2a0)" d="M 18.54 22.5 
C 19.828887 22.5 21.065158 22.016369 21.976539 21.15562 
C 22.88792 20.294872 23.4 19.127282 23.4 17.91 
C 23.4 16.692718 22.88792 15.525128 21.976539 14.66438 
C 21.065158 13.803631 19.828887 13.32 18.54 13.32 
C 17.251113 13.32 16.014842 13.803631 15.103461 14.66438 
C 14.19208 15.525128 13.68 16.692718 13.68 17.91 
C 13.68 19.127282 14.19208 20.294872 15.103461 21.15562 
C 16.014842 22.016369 17.251113 22.5 18.54 22.5 
z
" style="stroke:#000000;stroke-linejoin:miter;stroke-width:2;"/>
   </g>
  </g>
 </g>
 <defs>
  <clipPath id="pe9a36da2a0">
   <rect height="21.42" width="22.68" x="7.2" y="7.2"/>
  </clipPath>
 </defs>
</svg>