<svg height="63.156pt" version="1.1" viewBox="0 0 56.52 63.156" width="56.52pt" xmlns="http://www.w3.org/2000/svg" xmlns:xlink="http://www.w3.org/1999/xlink">
 <metadata>
  <rdf:RDF xmlns:cc="http://creativecommons.org/ns#" xmlns:dc="http://purl.org/dc/elements/1.1/" xmlns:rdf="http://www.w3.org/1999/02/22-rdf-syntax-ns#">
   <cc:Work>
    <dc:type rdf:resource="http://purl.org/dc/dcmitype/StillImage"/>
    <dc:date>2020-11-12T14:59:11.387974</dc:date>
    <dc:format>image/svg+xml</dc:format>
    <dc:creator>
     <cc:Agent>
      <dc:title>Matplotlib v3.3.2, https://matplotlib.org/</dc:title>
     </cc:Agent>
    </dc:creator>
   </cc:Work>
  </rdf:RDF>
 </metadata>
 <defs>
  <style type="text/css">*{stroke-linecap:butt;stroke-linejoin:round;}</style>
 </defs>
 <g id="figure_1">
  <g id="patch_1">
   <path d="M 0 63.156 
L 56.52 63.156 
L 56.52 0 
L 0 0 
z
" style="fill:none;"/>
<g class="ports">
<g class="port-1"></g>
<g class="port-2"></g>
<g class="port-3"></g>
</g>  </g>
  <g id="axes_1">
   <g id="patch_2">
    <path clip-path="url(#p80cda44ff5)" d="M 28.26 48.408 
C 32.985919 48.408 37.518913 46.634685 40.860643 43.478607 
C 44.202372 40.322529 46.08 36.041368 46.08 31.578 
C 46.08 27.114632 44.202372 22.833471 40.860643 19.677393 
C 37.518913 16.521315 32.985919 14.748 28.26 14.748 
C 23.534081 14.748 19.001087 16.521315 15.659357 19.677393 
C 12.317628 22.833471 10.44 27.114632 10.44 31.578 
C 10.44 36.041368 12.317628 40.322529 15.659357 43.478607 
C 19.001087 46.634685 23.534081 48.408 28.26 48.408 
z
" style="fill:none;stroke:#000000;stroke-linejoin:miter;stroke-width:2;"/>
   </g>
   <g id="patch_3">
    <path clip-path="url(#p80cda44ff5)" d="M 34.794 47.286 
L 27.765453 45.626482 
L 29.863474 43.314773 
L 22.309457 37.199617 
L 22.330543 37.176383 
L 29.88456 43.29154 
L 31.982581 40.979832 
z
" style="stroke:#000000;stroke-linejoin:miter;stroke-width:2;"/>
   </g>
   <g id="line2d_1">
    <path clip-path="url(#p80cda44ff5)" d="M 10.44 31.578 
L 22.32 31.578 
" style="fill:none;stroke:#000000;stroke-linecap:round;stroke-width:2;"/>
   </g>
   <g id="line2d_2">
    <path clip-path="url(#p80cda44ff5)" d="M 22.32 20.358 
L 22.32 42.798 
" style="fill:none;stroke:#000000;stroke-linecap:round;stroke-width:2;"/>
   </g>
   <g id="line2d_3">
    <path clip-path="url(#p80cda44ff5)" d="M 22.32 25.968 
L 34.794 15.87 
L 34.794 10.26 
" style="fill:none;stroke:#000000;stroke-linecap:round;stroke-width:2;"/>
   </g>
   <g id="line2d_4">
    <path clip-path="url(#p80cda44ff5)" d="M 22.32 37.188 
L 34.794 47.286 
L 34.794 52.896 
" style="fill:none;stroke:#000000;stroke-linecap:round;stroke-width:2;"/>
   </g>
  </g>
 </g>
 <defs>
  <clipPath id="p80cda44ff5">
   <rect height="48.756" width="42.12" x="7.2" y="7.2"/>
  </clipPath>
 </defs>
</svg>